<svg width="29" height="21" viewBox="0 0 29 21" fill="none" xmlns="http://www.w3.org/2000/svg">
<path d="M7.01836 20.5974C5.08636 20.5974 3.43588 19.9286 2.06692 18.5911C0.697111 17.2535 0.012207 15.6188 0.012207 13.6868C0.012207 12.0308 0.51113 10.5552 1.50898 9.26016C2.50682 7.96509 3.81251 7.13709 5.42605 6.77617C5.91436 5.05647 6.82218 3.61278 8.14953 2.44509C9.47603 1.2774 11.0097 0.566169 12.7507 0.311399V10.5977L10.7125 8.62324L8.92912 10.4066L14.0245 15.502L19.1199 10.4066L17.3365 8.62324L15.2984 10.5977V0.311399C17.4851 0.60863 19.3059 1.59034 20.7606 3.25653C22.2145 4.92357 22.9414 6.88232 22.9414 9.13278C24.4063 9.30263 25.622 9.93403 26.5884 11.027C27.554 12.1208 28.0368 13.4002 28.0368 14.8651C28.0368 16.4574 27.4797 17.8111 26.3655 18.9261C25.2505 20.0403 23.8968 20.5974 22.3045 20.5974H7.01836Z" fill="#A2B0FF"/>
</svg>
