<svg width="632" height="350" viewBox="0 0 632 350" fill="none" xmlns="http://www.w3.org/2000/svg">
<path d="M684 0.5C692.284 0.5 699.034 7.22107 698.678 15.4977C694.935 102.737 658.634 185.633 596.634 247.634C531.09 313.178 442.193 350 349.5 350C256.807 350 167.91 313.178 102.366 247.634C40.3658 185.633 4.06547 102.737 0.321605 15.4977C-0.0335858 7.22107 6.71573 0.5 15 0.5H127.195C135.479 0.5 142.138 7.2251 142.737 15.4877C146.323 64.9895 167.584 111.758 202.913 147.087C241.79 185.964 294.519 207.805 349.5 207.805C404.481 207.805 457.21 185.964 496.087 147.087C531.416 111.758 552.677 64.9895 556.263 15.4877C556.862 7.22507 563.521 0.5 571.805 0.5H684Z" fill="url(#paint0_linear_38_46)"/>
<defs>
<linearGradient id="paint0_linear_38_46" x1="57.787" y1="335.553" x2="562.312" y2="-0.0556297" gradientUnits="userSpaceOnUse">
<stop stop-color="#54D7AB"/>
<stop offset="1" stop-color="#54D7AB" stop-opacity="0"/>
</linearGradient>
</defs>
</svg>
