<svg width="350" height="699" viewBox="0 0 350 699" fill="none" xmlns="http://www.w3.org/2000/svg">
<path d="M349.5 684C349.5 692.284 342.779 699.034 334.502 698.678C247.263 694.935 164.367 658.634 102.366 596.634C36.8222 531.09 -2.57855e-06 442.193 0 349.5C2.57855e-06 256.807 36.8222 167.91 102.366 102.366C164.367 40.3658 247.263 4.06547 334.502 0.321605C342.779 -0.0335858 349.5 6.71573 349.5 15V127.195C349.5 135.479 342.775 142.138 334.512 142.737C285.01 146.323 238.242 167.584 202.913 202.913C164.036 241.79 142.195 294.519 142.195 349.5C142.195 404.481 164.036 457.21 202.913 496.087C238.242 531.416 285.01 552.677 334.512 556.263C342.775 556.862 349.5 563.521 349.5 571.805V684Z" fill="url(#paint0_linear_38_44)"/>
<defs>
<linearGradient id="paint0_linear_38_44" x1="14.4467" y1="57.787" x2="350.056" y2="562.312" gradientUnits="userSpaceOnUse">
<stop stop-color="#54D7AB"/>
<stop offset="1" stop-color="#54D7AB" stop-opacity="0"/>
</linearGradient>
</defs>
</svg>
