<svg width="35" height="35" viewBox="0 0 35 35" fill="none" xmlns="http://www.w3.org/2000/svg">
<mask id="mask0_103_13" style="mask-type:alpha" maskUnits="userSpaceOnUse" x="0" y="0" width="35" height="35">
<rect width="35" height="35" fill="#D9D9D9"/>
</mask>
<g mask="url(#mask0_103_13)">
<g filter="url(#filter0_d_103_13)">
<path d="M13.854 24.0625L24.0623 17.5L13.854 10.9375V24.0625ZM17.4998 32.0833C15.4825 32.0833 13.5866 31.7003 11.8123 30.9342C10.038 30.169 8.49463 29.1302 7.18213 27.8177C5.86963 26.5052 4.83081 24.9618 4.06567 23.1875C3.29956 21.4132 2.9165 19.5174 2.9165 17.5C2.9165 15.4826 3.29956 13.5868 4.06567 11.8125C4.83081 10.0382 5.86963 8.49479 7.18213 7.18229C8.49463 5.86979 10.038 4.83049 11.8123 4.06437C13.5866 3.29924 15.4825 2.91667 17.4998 2.91667C19.5172 2.91667 21.413 3.29924 23.1873 4.06437C24.9616 4.83049 26.505 5.86979 27.8175 7.18229C29.13 8.49479 30.1689 10.0382 30.934 11.8125C31.7001 13.5868 32.0832 15.4826 32.0832 17.5C32.0832 19.5174 31.7001 21.4132 30.934 23.1875C30.1689 24.9618 29.13 26.5052 27.8175 27.8177C26.505 29.1302 24.9616 30.169 23.1873 30.9342C21.413 31.7003 19.5172 32.0833 17.4998 32.0833Z" fill="#D9D9D9"/>
</g>
</g>
<defs>
<filter id="filter0_d_103_13" x="-1.0835" y="2.91667" width="37.1665" height="37.1667" filterUnits="userSpaceOnUse" color-interpolation-filters="sRGB">
<feFlood flood-opacity="0" result="BackgroundImageFix"/>
<feColorMatrix in="SourceAlpha" type="matrix" values="0 0 0 0 0 0 0 0 0 0 0 0 0 0 0 0 0 0 127 0" result="hardAlpha"/>
<feOffset dy="4"/>
<feGaussianBlur stdDeviation="2"/>
<feComposite in2="hardAlpha" operator="out"/>
<feColorMatrix type="matrix" values="0 0 0 0 0 0 0 0 0 0 0 0 0 0 0 0 0 0 0.25 0"/>
<feBlend mode="normal" in2="BackgroundImageFix" result="effect1_dropShadow_103_13"/>
<feBlend mode="normal" in="SourceGraphic" in2="effect1_dropShadow_103_13" result="shape"/>
</filter>
</defs>
</svg>
