<svg width="103" height="103" viewBox="0 0 103 103" fill="none" xmlns="http://www.w3.org/2000/svg">
<path opacity="0.4" d="M85.2354 51.5C87.8668 51.5 90.0304 53.6412 89.7056 56.2525C88.8657 63.0043 86.2468 69.4436 82.0784 74.8925C76.9407 81.6085 69.7348 86.4463 61.5735 88.6588C53.4123 90.8712 44.7496 90.3353 36.9233 87.1338C29.097 83.9323 22.5423 78.2433 18.2715 70.9452C14.0007 63.6472 12.2513 55.1461 13.2936 46.7547C14.3358 38.3634 18.1116 30.5485 24.0379 24.5169C29.9643 18.4854 37.7115 14.5727 46.0832 13.383C52.8754 12.4177 59.7722 13.2885 66.07 15.8634C68.5057 16.8592 69.3127 19.7943 68.0239 22.0884C66.735 24.3825 63.8376 25.1557 61.3634 24.2598C56.9275 22.6537 52.1422 22.1468 47.4239 22.8173C41.1243 23.7125 35.2946 26.6568 30.8351 31.1955C26.3756 35.7342 23.5343 41.6148 22.75 47.9292C21.9658 54.2436 23.2821 60.6406 26.4959 66.1323C29.7096 71.624 34.6419 75.905 40.5312 78.3141C46.4204 80.7232 52.939 81.1265 59.0802 79.4616C65.2215 77.7967 70.6439 74.1564 74.51 69.1026C77.4056 65.3175 79.3076 60.8973 80.08 56.2432C80.5108 53.6473 82.604 51.5 85.2354 51.5Z" fill="white"/>
<path d="M85.2354 51.5C87.8668 51.5 90.0304 53.6412 89.7056 56.2525C89.2223 60.1376 88.148 63.9357 86.5119 67.5129C84.2135 72.5384 80.8602 77.0102 76.6798 80.6244C72.4994 84.2386 67.59 86.9105 62.2851 88.4585C56.9802 90.0066 51.4043 90.3945 45.9362 89.5959C40.4681 88.7972 35.236 86.8309 30.5954 83.8303C25.9549 80.8298 22.0147 76.8654 19.0425 72.2066C16.0704 67.5478 14.136 62.3037 13.3709 56.8309C12.8262 52.9351 12.883 48.9884 13.5311 45.1274C13.9666 42.5323 16.6522 41.0993 19.1737 41.8518V41.8518C21.6951 42.6044 23.0869 45.2606 22.7573 47.8713C22.4378 50.4022 22.453 52.9712 22.8082 55.5114C23.384 59.6297 24.8396 63.5758 27.0761 67.0815C29.3126 70.5872 32.2775 73.5704 35.7695 75.8282C39.2615 78.0861 43.1986 79.5658 47.3133 80.1668C51.428 80.7677 55.6238 80.4758 59.6157 79.3109C63.6075 78.146 67.3018 76.1354 70.4475 73.4158C73.5932 70.6961 76.1166 67.3312 77.8461 63.5496C78.9129 61.217 79.6623 58.7597 80.08 56.2432C80.5108 53.6473 82.604 51.5 85.2354 51.5V51.5Z" fill="white"/>
<path opacity="0.4" d="M33.2759 23.4092C31.7682 21.0853 32.4197 17.9457 34.9198 16.7527C42.5339 13.1194 51.18 12.0679 59.5218 13.8451C69.5085 15.9727 78.241 21.9804 83.7982 30.5466C89.3553 39.1127 91.282 49.5356 89.1544 59.5223C87.3772 67.8641 82.8929 75.3308 76.4716 80.8028C74.3632 82.5995 71.2307 81.9147 69.7231 79.5908C68.2155 77.2669 68.9161 74.1891 70.9398 72.2975C75.167 68.3461 78.1208 63.1689 79.343 57.432C80.9163 50.0474 79.4916 42.3403 75.3824 36.0062C71.2732 29.672 64.8161 25.2297 57.4315 23.6564C51.6946 22.4342 45.763 23.0213 40.4318 25.2709C37.8795 26.3478 34.7835 25.7331 33.2759 23.4092Z" fill="white"/>
<circle opacity="0.2" cx="51.5" cy="51.5" r="9.5" fill="white"/>
<circle cx="90" cy="10" r="7" fill="white"/>
</svg>
