<svg width="79" height="85" viewBox="0 0 79 85" fill="none" xmlns="http://www.w3.org/2000/svg">
<rect opacity="0.4" x="3" y="2" width="73" height="73" rx="18" fill="url(#paint0_linear_112_10)"/>
<g filter="url(#filter0_f_112_10)">
<mask id="mask0_112_10" style="mask-type:alpha" maskUnits="userSpaceOnUse" x="23" y="30" width="33" height="33">
<rect x="23" y="30" width="33" height="33" fill="#D9D9D9"/>
</mask>
<g mask="url(#mask0_112_10)">
<path d="M50.5 60.25H27.125C26.3687 60.25 25.7216 59.981 25.1835 59.4429C24.6445 58.9039 24.375 58.2563 24.375 57.5V42.375H27.125V57.5H50.5V60.25ZM32.625 54.75C31.8688 54.75 31.2216 54.481 30.6835 53.9429C30.1445 53.4039 29.875 52.7563 29.875 52V36.875H36.75V34.125C36.75 33.3687 37.0195 32.7211 37.5585 32.1821C38.0966 31.644 38.7437 31.375 39.5 31.375H45C45.7563 31.375 46.4039 31.644 46.9429 32.1821C47.481 32.7211 47.75 33.3687 47.75 34.125V36.875H54.625V52C54.625 52.7563 54.356 53.4039 53.8179 53.9429C53.2789 54.481 52.6313 54.75 51.875 54.75H32.625ZM39.5 36.875H45V34.125H39.5V36.875Z" fill="#36D6F9"/>
</g>
</g>
<mask id="mask1_112_10" style="mask-type:alpha" maskUnits="userSpaceOnUse" x="23" y="22" width="33" height="33">
<rect x="23" y="22" width="33" height="33" fill="#D9D9D9"/>
</mask>
<g mask="url(#mask1_112_10)">
<path d="M50.5 52.25H27.125C26.3687 52.25 25.7216 51.981 25.1835 51.4429C24.6445 50.9039 24.375 50.2563 24.375 49.5V34.375H27.125V49.5H50.5V52.25ZM32.625 46.75C31.8688 46.75 31.2216 46.481 30.6835 45.9429C30.1445 45.4039 29.875 44.7563 29.875 44V28.875H36.75V26.125C36.75 25.3687 37.0195 24.7211 37.5585 24.1821C38.0966 23.644 38.7437 23.375 39.5 23.375H45C45.7563 23.375 46.4039 23.644 46.9429 24.1821C47.481 24.7211 47.75 25.3687 47.75 26.125V28.875H54.625V44C54.625 44.7563 54.356 45.4039 53.8179 45.9429C53.2789 46.481 52.6313 46.75 51.875 46.75H32.625ZM39.5 28.875H45V26.125H39.5V28.875Z" fill="#36D6F9"/>
</g>
<circle cx="71.5" cy="7.5" r="6" fill="#36D6F9" stroke="#222427" stroke-width="3"/>
<defs>
<filter id="filter0_f_112_10" x="0.375" y="7.375" width="78.25" height="76.875" filterUnits="userSpaceOnUse" color-interpolation-filters="sRGB">
<feFlood flood-opacity="0" result="BackgroundImageFix"/>
<feBlend mode="normal" in="SourceGraphic" in2="BackgroundImageFix" result="shape"/>
<feGaussianBlur stdDeviation="12" result="effect1_foregroundBlur_112_10"/>
</filter>
<linearGradient id="paint0_linear_112_10" x1="3" y1="2" x2="31.5" y2="75" gradientUnits="userSpaceOnUse">
<stop stop-color="#36D6F9"/>
<stop offset="1" stop-color="#36D6F9" stop-opacity="0"/>
</linearGradient>
</defs>
</svg>
