<svg width="79" height="85" viewBox="0 0 79 85" fill="none" xmlns="http://www.w3.org/2000/svg">
<rect opacity="0.4" x="3" y="2" width="73" height="73" rx="18" fill="url(#paint0_linear_112_2)"/>
<g filter="url(#filter0_f_112_2)">
<mask id="mask0_112_2" style="mask-type:alpha" maskUnits="userSpaceOnUse" x="23" y="30" width="33" height="33">
<rect x="23" y="30" width="33" height="33" fill="#D9D9D9"/>
</mask>
<g mask="url(#mask0_112_2)">
<path d="M50.4995 60.25H27.1245C26.3683 60.25 25.7211 59.981 25.183 59.4429C24.644 58.9039 24.3745 58.2563 24.3745 57.5V42.375H27.1245V57.5H50.4995V60.25ZM32.6245 54.75C31.8683 54.75 31.2211 54.481 30.683 53.9429C30.144 53.4039 29.8745 52.7563 29.8745 52V36.875H36.7495V34.125C36.7495 33.3687 37.019 32.7211 37.558 32.1821C38.0961 31.644 38.7433 31.375 39.4995 31.375H44.9995C45.7558 31.375 46.4034 31.644 46.9424 32.1821C47.4805 32.7211 47.7495 33.3687 47.7495 34.125V36.875H54.6245V52C54.6245 52.7563 54.3555 53.4039 53.8174 53.9429C53.2784 54.481 52.6308 54.75 51.8745 54.75H32.6245ZM39.4995 36.875H44.9995V34.125H39.4995V36.875Z" fill="#54D7AB"/>
</g>
</g>
<mask id="mask1_112_2" style="mask-type:alpha" maskUnits="userSpaceOnUse" x="23" y="22" width="33" height="33">
<rect x="23" y="22" width="33" height="33" fill="#D9D9D9"/>
</mask>
<g mask="url(#mask1_112_2)">
<path d="M50.4995 52.25H27.1245C26.3683 52.25 25.7211 51.981 25.183 51.4429C24.644 50.9039 24.3745 50.2563 24.3745 49.5V34.375H27.1245V49.5H50.4995V52.25ZM32.6245 46.75C31.8683 46.75 31.2211 46.481 30.683 45.9429C30.144 45.4039 29.8745 44.7563 29.8745 44V28.875H36.7495V26.125C36.7495 25.3687 37.019 24.7211 37.558 24.1821C38.0961 23.644 38.7433 23.375 39.4995 23.375H44.9995C45.7558 23.375 46.4034 23.644 46.9424 24.1821C47.4805 24.7211 47.7495 25.3687 47.7495 26.125V28.875H54.6245V44C54.6245 44.7563 54.3555 45.4039 53.8174 45.9429C53.2784 46.481 52.6308 46.75 51.8745 46.75H32.6245ZM39.4995 28.875H44.9995V26.125H39.4995V28.875Z" fill="#54D7AB"/>
</g>
<circle cx="71.5" cy="7.5" r="6" fill="#54D7AB" stroke="#222427" stroke-width="3"/>
<defs>
<filter id="filter0_f_112_2" x="0.374512" y="7.375" width="78.25" height="76.875" filterUnits="userSpaceOnUse" color-interpolation-filters="sRGB">
<feFlood flood-opacity="0" result="BackgroundImageFix"/>
<feBlend mode="normal" in="SourceGraphic" in2="BackgroundImageFix" result="shape"/>
<feGaussianBlur stdDeviation="12" result="effect1_foregroundBlur_112_2"/>
</filter>
<linearGradient id="paint0_linear_112_2" x1="3" y1="2" x2="31.5" y2="75" gradientUnits="userSpaceOnUse">
<stop stop-color="#5FDFB4"/>
<stop offset="1" stop-color="#5FDFB4" stop-opacity="0"/>
</linearGradient>
</defs>
</svg>
