<svg width="109" height="25" viewBox="0 0 109 25" fill="none" xmlns="http://www.w3.org/2000/svg">
<path d="M11.5406 17.3536V19.9996H0.308594V0.55957H3.46759V17.3536H11.5406Z" fill="white"/>
<path d="M18.8266 6.01357C19.8436 6.01357 20.7616 6.18007 21.5806 6.51307C22.4086 6.84607 23.1106 7.31857 23.6866 7.93057C24.2716 8.54257 24.7216 9.28507 25.0366 10.1581C25.3516 11.0311 25.5091 12.0121 25.5091 13.1011C25.5091 14.1901 25.3516 15.1711 25.0366 16.0441C24.7216 16.9171 24.2716 17.6641 23.6866 18.2851C23.1106 18.8971 22.4086 19.3696 21.5806 19.7026C20.7616 20.0356 19.8436 20.2021 18.8266 20.2021C17.8006 20.2021 16.8736 20.0356 16.0456 19.7026C15.2266 19.3696 14.5246 18.8971 13.9396 18.2851C13.3546 17.6641 12.9046 16.9171 12.5896 16.0441C12.2746 15.1711 12.1171 14.1901 12.1171 13.1011C12.1171 12.0121 12.2746 11.0311 12.5896 10.1581C12.9046 9.28507 13.3546 8.54257 13.9396 7.93057C14.5246 7.31857 15.2266 6.84607 16.0456 6.51307C16.8736 6.18007 17.8006 6.01357 18.8266 6.01357ZM18.8266 17.9341C20.0686 17.9341 20.9911 17.5201 21.5941 16.6921C22.2061 15.8551 22.5121 14.6626 22.5121 13.1146C22.5121 11.5666 22.2061 10.3741 21.5941 9.53707C20.9911 8.69107 20.0686 8.26807 18.8266 8.26807C17.5666 8.26807 16.6306 8.69107 16.0186 9.53707C15.4066 10.3741 15.1006 11.5666 15.1006 13.1146C15.1006 14.6626 15.4066 15.8551 16.0186 16.6921C16.6306 17.5201 17.5666 17.9341 18.8266 17.9341Z" fill="white"/>
<path d="M33.1064 12.9931C34.0064 12.9931 34.6814 12.7636 35.1314 12.3046C35.5814 11.8456 35.8064 11.2471 35.8064 10.5091C35.8064 9.75307 35.5814 9.15457 35.1314 8.71357C34.6814 8.27257 34.0064 8.05207 33.1064 8.05207C32.2154 8.05207 31.5404 8.27257 31.0814 8.71357C30.6314 9.15457 30.4064 9.75307 30.4064 10.5091C30.4064 10.8691 30.4649 11.2021 30.5819 11.5081C30.6989 11.8141 30.8699 12.0796 31.0949 12.3046C31.3199 12.5206 31.5989 12.6916 31.9319 12.8176C32.2739 12.9346 32.6654 12.9931 33.1064 12.9931ZM37.1429 20.6746C37.1429 20.3686 37.0529 20.1256 36.8729 19.9456C36.7019 19.7566 36.4679 19.6126 36.1709 19.5136C35.8739 19.4056 35.5274 19.3291 35.1314 19.2841C34.7354 19.2301 34.3124 19.1941 33.8624 19.1761C33.4214 19.1491 32.9669 19.1266 32.4989 19.1086C32.0399 19.0816 31.5944 19.0366 31.1624 18.9736C30.7304 19.1986 30.3749 19.4686 30.0959 19.7836C29.8259 20.0986 29.6909 20.4631 29.6909 20.8771C29.6909 21.1471 29.7584 21.3991 29.8934 21.6331C30.0374 21.8671 30.2534 22.0696 30.5414 22.2406C30.8384 22.4116 31.2119 22.5466 31.6619 22.6456C32.1209 22.7446 32.6699 22.7941 33.3089 22.7941C34.5869 22.7941 35.5454 22.5961 36.1844 22.2001C36.8234 21.8041 37.1429 21.2956 37.1429 20.6746ZM40.0589 6.72907V7.80907C40.0589 8.16907 39.8429 8.38957 39.4109 8.47057L38.0339 8.70007C38.2679 9.22207 38.3849 9.80257 38.3849 10.4416C38.3849 11.1166 38.2499 11.7286 37.9799 12.2776C37.7189 12.8266 37.3544 13.2946 36.8864 13.6816C36.4184 14.0686 35.8604 14.3656 35.2124 14.5726C34.5644 14.7796 33.8624 14.8831 33.1064 14.8831C32.8184 14.8831 32.5349 14.8696 32.2559 14.8426C31.9859 14.8066 31.7204 14.7616 31.4594 14.7076C31.1984 14.8606 31.0049 15.0226 30.8789 15.1936C30.7529 15.3646 30.6899 15.5401 30.6899 15.7201C30.6899 16.0171 30.8204 16.2376 31.0814 16.3816C31.3424 16.5256 31.6844 16.6291 32.1074 16.6921C32.5394 16.7551 33.0299 16.7956 33.5789 16.8136C34.1279 16.8316 34.6859 16.8631 35.2529 16.9081C35.8199 16.9531 36.3779 17.0296 36.9269 17.1376C37.4759 17.2366 37.9619 17.4076 38.3849 17.6506C38.8169 17.8846 39.1634 18.2041 39.4244 18.6091C39.6854 19.0141 39.8159 19.5406 39.8159 20.1886C39.8159 20.7826 39.6674 21.3631 39.3704 21.9301C39.0734 22.4971 38.6414 23.0011 38.0744 23.4421C37.5164 23.8831 36.8324 24.2341 36.0224 24.4951C35.2124 24.7651 34.2899 24.9001 33.2549 24.9001C32.2289 24.9001 31.3334 24.8011 30.5684 24.6031C29.8124 24.4051 29.1779 24.1351 28.6649 23.7931C28.1609 23.4601 27.7829 23.0731 27.5309 22.6321C27.2879 22.1911 27.1664 21.7321 27.1664 21.2551C27.1664 20.6071 27.3689 20.0536 27.7739 19.5946C28.1879 19.1356 28.7459 18.7756 29.4479 18.5146C29.0699 18.3346 28.7639 18.0871 28.5299 17.7721C28.3049 17.4571 28.1924 17.0431 28.1924 16.5301C28.1924 16.1251 28.3409 15.7021 28.6379 15.2611C28.9349 14.8201 29.3804 14.4466 29.9744 14.1406C29.2904 13.7626 28.7504 13.2631 28.3544 12.6421C27.9584 12.0121 27.7604 11.2786 27.7604 10.4416C27.7604 9.75757 27.8909 9.14107 28.1519 8.59207C28.4219 8.04307 28.7954 7.57507 29.2724 7.18807C29.7494 6.80107 30.3119 6.50407 30.9599 6.29707C31.6169 6.09007 32.3324 5.98657 33.1064 5.98657C34.2944 5.98657 35.3294 6.23407 36.2114 6.72907H40.0589Z" fill="white"/>
<path d="M48.0678 6.01357C49.0848 6.01357 50.0028 6.18007 50.8218 6.51307C51.6498 6.84607 52.3518 7.31857 52.9278 7.93057C53.5128 8.54257 53.9628 9.28507 54.2778 10.1581C54.5928 11.0311 54.7503 12.0121 54.7503 13.1011C54.7503 14.1901 54.5928 15.1711 54.2778 16.0441C53.9628 16.9171 53.5128 17.6641 52.9278 18.2851C52.3518 18.8971 51.6498 19.3696 50.8218 19.7026C50.0028 20.0356 49.0848 20.2021 48.0678 20.2021C47.0418 20.2021 46.1148 20.0356 45.2868 19.7026C44.4678 19.3696 43.7658 18.8971 43.1808 18.2851C42.5958 17.6641 42.1458 16.9171 41.8308 16.0441C41.5158 15.1711 41.3583 14.1901 41.3583 13.1011C41.3583 12.0121 41.5158 11.0311 41.8308 10.1581C42.1458 9.28507 42.5958 8.54257 43.1808 7.93057C43.7658 7.31857 44.4678 6.84607 45.2868 6.51307C46.1148 6.18007 47.0418 6.01357 48.0678 6.01357ZM48.0678 17.9341C49.3098 17.9341 50.2323 17.5201 50.8353 16.6921C51.4473 15.8551 51.7533 14.6626 51.7533 13.1146C51.7533 11.5666 51.4473 10.3741 50.8353 9.53707C50.2323 8.69107 49.3098 8.26807 48.0678 8.26807C46.8078 8.26807 45.8718 8.69107 45.2598 9.53707C44.6478 10.3741 44.3418 11.5666 44.3418 13.1146C44.3418 14.6626 44.6478 15.8551 45.2598 16.6921C45.8718 17.5201 46.8078 17.9341 48.0678 17.9341Z" fill="white"/>
<path d="M61.6899 20.2156C60.5469 20.2156 59.6649 19.8961 59.0439 19.2571C58.4319 18.6091 58.1259 17.7001 58.1259 16.5301V8.51107H56.6139C56.4519 8.51107 56.3124 8.46157 56.1954 8.36257C56.0784 8.25457 56.0199 8.09707 56.0199 7.89007V6.71557L58.2474 6.39157L58.8819 2.40907C58.9269 2.25607 59.0034 2.13457 59.1114 2.04457C59.2194 1.94557 59.3634 1.89607 59.5434 1.89607H61.0284V6.41857H64.8489V8.51107H61.0284V16.3276C61.0284 16.8226 61.1499 17.2006 61.3929 17.4616C61.6359 17.7226 61.9599 17.8531 62.3649 17.8531C62.5899 17.8531 62.7834 17.8261 62.9454 17.7721C63.1074 17.7091 63.2469 17.6461 63.3639 17.5831C63.4809 17.5111 63.5799 17.4481 63.6609 17.3941C63.7509 17.3311 63.8364 17.2996 63.9174 17.2996C64.0794 17.2996 64.2099 17.3896 64.3089 17.5696L65.1729 18.9871C64.7229 19.3831 64.1919 19.6891 63.5799 19.9051C62.9679 20.1121 62.3379 20.2156 61.6899 20.2156Z" fill="white"/>
<path d="M79.3543 6.22957L71.7673 23.9146C71.6683 24.1216 71.5468 24.2836 71.4028 24.4006C71.2678 24.5176 71.0563 24.5761 70.7683 24.5761H68.6218L71.1598 19.0681L65.5438 6.22957H68.0683C68.3113 6.22957 68.4958 6.28807 68.6218 6.40507C68.7568 6.51307 68.8558 6.64357 68.9188 6.79657L72.1993 14.6131C72.2803 14.8381 72.3523 15.0631 72.4153 15.2881C72.4873 15.5041 72.5548 15.7291 72.6178 15.9631C72.6898 15.7291 72.7618 15.4996 72.8338 15.2746C72.9058 15.0496 72.9868 14.8246 73.0768 14.5996L76.2223 6.79657C76.2853 6.63457 76.3888 6.49957 76.5328 6.39157C76.6858 6.28357 76.8523 6.22957 77.0323 6.22957H79.3543Z" fill="white"/>
<path d="M84.1457 16.5436C84.5507 17.0656 84.9917 17.4346 85.4687 17.6506C85.9547 17.8576 86.4902 17.9611 87.0752 17.9611C88.2092 17.9611 89.0912 17.5471 89.7212 16.7191C90.3602 15.8911 90.6797 14.6581 90.6797 13.0201C90.6797 12.1741 90.6077 11.4541 90.4637 10.8601C90.3197 10.2571 90.1127 9.76657 89.8427 9.38857C89.5727 9.01057 89.2442 8.73607 88.8572 8.56507C88.4702 8.39407 88.0337 8.30857 87.5477 8.30857C86.8097 8.30857 86.1707 8.47057 85.6307 8.79457C85.0997 9.10957 84.6047 9.56407 84.1457 10.1581V16.5436ZM83.9972 8.22757C84.5732 7.55257 85.2257 7.00807 85.9547 6.59407C86.6927 6.18007 87.5477 5.97307 88.5197 5.97307C89.2937 5.97307 89.9957 6.13057 90.6257 6.44557C91.2557 6.75157 91.7957 7.20157 92.2457 7.79557C92.6957 8.38957 93.0422 9.12757 93.2852 10.0096C93.5372 10.8826 93.6632 11.8861 93.6632 13.0201C93.6632 14.0371 93.5237 14.9866 93.2447 15.8686C92.9747 16.7416 92.5832 17.5021 92.0702 18.1501C91.5572 18.7891 90.9362 19.2931 90.2072 19.6621C89.4782 20.0221 88.6547 20.2021 87.7367 20.2021C86.9267 20.2021 86.2382 20.0716 85.6712 19.8106C85.1132 19.5496 84.6047 19.1896 84.1457 18.7306V24.5761H81.2432V6.22957H82.9982C83.3942 6.22957 83.6462 6.41407 83.7542 6.78307L83.9972 8.22757Z" fill="white"/>
<path d="M105.515 11.5621C105.515 11.0761 105.443 10.6261 105.299 10.2121C105.164 9.78907 104.961 9.42457 104.691 9.11857C104.421 8.80357 104.084 8.56057 103.679 8.38957C103.283 8.20957 102.824 8.11957 102.302 8.11957C101.249 8.11957 100.421 8.42107 99.8179 9.02407C99.2149 9.62707 98.8324 10.4731 98.6704 11.5621H105.515ZM98.5894 13.3441C98.6254 14.1271 98.7469 14.8066 98.9539 15.3826C99.1609 15.9496 99.4354 16.4221 99.7774 16.8001C100.128 17.1781 100.542 17.4616 101.019 17.6506C101.505 17.8306 102.045 17.9206 102.639 17.9206C103.206 17.9206 103.697 17.8576 104.111 17.7316C104.525 17.5966 104.885 17.4526 105.191 17.2996C105.497 17.1376 105.758 16.9936 105.974 16.8676C106.19 16.7326 106.388 16.6651 106.568 16.6651C106.802 16.6651 106.982 16.7551 107.108 16.9351L107.931 18.0016C107.589 18.4066 107.202 18.7486 106.77 19.0276C106.338 19.3066 105.879 19.5361 105.393 19.7161C104.907 19.8871 104.408 20.0086 103.895 20.0806C103.382 20.1616 102.882 20.2021 102.396 20.2021C101.442 20.2021 100.556 20.0446 99.7369 19.7296C98.9269 19.4056 98.2204 18.9331 97.6174 18.3121C97.0234 17.6911 96.5554 16.9216 96.2134 16.0036C95.8804 15.0856 95.7139 14.0281 95.7139 12.8311C95.7139 11.8771 95.8624 10.9861 96.1594 10.1581C96.4654 9.33007 96.8974 8.61007 97.4554 7.99807C98.0224 7.38607 98.7064 6.90457 99.5074 6.55357C100.317 6.19357 101.231 6.01357 102.248 6.01357C103.094 6.01357 103.877 6.15307 104.597 6.43207C105.317 6.70207 105.938 7.10257 106.46 7.63357C106.982 8.16457 107.387 8.81707 107.675 9.59107C107.972 10.3561 108.12 11.2291 108.12 12.2101C108.12 12.6601 108.071 12.9616 107.972 13.1146C107.873 13.2676 107.693 13.3441 107.432 13.3441H98.5894Z" fill="white"/>
</svg>
