<svg width="357" height="713" viewBox="0 0 357 713" fill="none" xmlns="http://www.w3.org/2000/svg">
<path d="M356.5 698C356.5 706.284 349.779 713.033 341.502 712.685C252.405 708.936 167.73 671.897 104.416 608.584C37.5597 541.727 -2.6302e-06 451.05 0 356.5C2.6302e-06 261.95 37.5597 171.273 104.416 104.416C167.73 41.1032 252.405 4.0637 341.502 0.315297C349.779 -0.0329241 356.5 6.71573 356.5 15V130.043C356.5 138.327 349.775 144.988 341.512 145.574C290.907 149.168 243.085 170.869 206.977 206.977C167.321 246.633 145.043 300.418 145.043 356.5C145.043 412.582 167.321 466.367 206.977 506.023C243.085 542.131 290.907 563.832 341.512 567.426C349.775 568.012 356.5 574.673 356.5 582.957V698Z" fill="url(#paint0_linear_38_323)"/>
<defs>
<linearGradient id="paint0_linear_38_323" x1="14.7361" y1="58.9444" x2="357.067" y2="573.574" gradientUnits="userSpaceOnUse">
<stop stop-color="#222427"/>
<stop offset="1" stop-color="#222427" stop-opacity="0"/>
</linearGradient>
</defs>
</svg>
