<svg width="27" height="27" viewBox="0 0 27 27" fill="none" xmlns="http://www.w3.org/2000/svg">
<g opacity="0.5">
<mask id="mask0_38_386" style="mask-type:alpha" maskUnits="userSpaceOnUse" x="0" y="0" width="27" height="27">
<rect y="0.275391" width="26.2627" height="26.2627" fill="#D9D9D9"/>
</mask>
<g mask="url(#mask0_38_386)">
<path d="M17.5083 15.048C17.9825 15.048 18.3746 14.893 18.6847 14.583C18.9947 14.2729 19.1498 13.8808 19.1498 13.4066C19.1498 12.9324 18.9947 12.5403 18.6847 12.2303C18.3746 11.9202 17.9825 11.7652 17.5083 11.7652C17.0342 11.7652 16.642 11.9202 16.332 12.2303C16.0219 12.5403 15.8669 12.9324 15.8669 13.4066C15.8669 13.8808 16.0219 14.2729 16.332 14.583C16.642 14.893 17.0342 15.048 17.5083 15.048ZM14.2255 18.878C13.6237 18.878 13.1086 18.6639 12.6804 18.2357C12.2514 17.8067 12.0369 17.2913 12.0369 16.6895V10.1238C12.0369 9.52193 12.2514 9.00652 12.6804 8.57756C13.1086 8.14933 13.6237 7.93522 14.2255 7.93522H21.8855C22.4873 7.93522 23.0027 8.14933 23.4317 8.57756C23.8599 9.00652 24.074 9.52193 24.074 10.1238V16.6895C24.074 17.2913 23.8599 17.8067 23.4317 18.2357C23.0027 18.6639 22.4873 18.878 21.8855 18.878H14.2255ZM5.47127 23.2551C4.86942 23.2551 4.35401 23.041 3.92506 22.6128C3.49683 22.1838 3.28271 21.6684 3.28271 21.0666V5.74666C3.28271 5.14481 3.49683 4.6294 3.92506 4.20045C4.35401 3.77222 4.86942 3.55811 5.47127 3.55811H20.7912C21.393 3.55811 21.9084 3.77222 22.3374 4.20045C22.7656 4.6294 22.9797 5.14481 22.9797 5.74666H14.2255C12.9306 5.74666 11.8775 6.15228 11.0663 6.9635C10.2544 7.77546 9.84839 8.82888 9.84839 10.1238V16.6895C9.84839 17.9843 10.2544 19.0374 11.0663 19.8486C11.8775 20.6606 12.9306 21.0666 14.2255 21.0666H22.9797C22.9797 21.6684 22.7656 22.1838 22.3374 22.6128C21.9084 23.041 21.393 23.2551 20.7912 23.2551H5.47127Z" fill="white"/>
</g>
</g>
</svg>
