<svg width="25" height="18" viewBox="0 0 25 18" fill="none" xmlns="http://www.w3.org/2000/svg">
<path d="M12.1308 13.7839C13.4987 13.7839 14.6615 13.3054 15.6194 12.3482C16.5765 11.3904 17.0551 10.2275 17.0551 8.85968C17.0551 7.49183 16.5765 6.32898 15.6194 5.37112C14.6615 4.41399 13.4987 3.93542 12.1308 3.93542C10.763 3.93542 9.60012 4.41399 8.64226 5.37112C7.68513 6.32898 7.20656 7.49183 7.20656 8.85968C7.20656 10.2275 7.68513 11.3904 8.64226 12.3482C9.60012 13.3054 10.763 13.7839 12.1308 13.7839ZM12.1308 11.8142C11.3101 11.8142 10.6127 11.5268 10.0386 10.9519C9.4637 10.3778 9.17627 9.68039 9.17627 8.85968C9.17627 8.03897 9.4637 7.34119 10.0386 6.76632C10.6127 6.19219 11.3101 5.90513 12.1308 5.90513C12.9515 5.90513 13.6493 6.19219 14.2242 6.76632C14.7983 7.34119 15.0854 8.03897 15.0854 8.85968C15.0854 9.68039 14.7983 10.3778 14.2242 10.9519C13.6493 11.5268 12.9515 11.8142 12.1308 11.8142ZM12.1308 17.0668C9.46807 17.0668 7.04242 16.3234 4.85386 14.8366C2.66531 13.3506 1.0786 11.3583 0.09375 8.85968C1.0786 6.36108 2.66531 4.36839 4.85386 2.88163C7.04242 1.3956 9.46807 0.652588 12.1308 0.652588C14.7936 0.652588 17.2192 1.3956 19.4078 2.88163C21.5963 4.36839 23.183 6.36108 24.1679 8.85968C23.183 11.3583 21.5963 13.3506 19.4078 14.8366C17.2192 16.3234 14.7936 17.0668 12.1308 17.0668Z" fill="white"/>
</svg>
