<svg width="24" height="17" viewBox="0 0 24 17" fill="none" xmlns="http://www.w3.org/2000/svg">
<path d="M6.27116 16.8334C4.6913 16.8334 3.34164 16.2865 2.2222 15.1927C1.10206 14.099 0.541992 12.7622 0.541992 11.1823C0.541992 9.82815 0.949978 8.62155 1.76595 7.56252C2.58192 6.50349 3.64963 5.82641 4.96908 5.53127C5.36838 4.12502 6.11074 2.94446 7.19616 1.9896C8.28088 1.03474 9.53505 0.453145 10.9587 0.244812V8.65627L9.29199 7.04169L7.83366 8.50002L12.0003 12.6667L16.167 8.50002L14.7087 7.04169L13.042 8.65627V0.244812C14.8302 0.487868 16.3191 1.29065 17.5087 2.65315C18.6975 4.01634 19.292 5.61808 19.292 7.45835C20.4899 7.59724 21.484 8.11356 22.2743 9.00731C23.0639 9.90176 23.4587 10.9479 23.4587 12.1459C23.4587 13.4479 23.0031 14.5549 22.092 15.4667C21.1802 16.3778 20.0732 16.8334 18.7712 16.8334H6.27116Z" fill="#A2B0FF"/>
</svg>
