<svg width="109" height="25" viewBox="0 0 109 25" fill="none" xmlns="http://www.w3.org/2000/svg">
<path d="M11.5406 17.354V20H0.308594V0.559998H3.46759V17.354H11.5406Z" fill="white"/>
<path d="M18.8266 6.014C19.8436 6.014 20.7616 6.1805 21.5806 6.5135C22.4086 6.8465 23.1106 7.319 23.6866 7.931C24.2716 8.543 24.7216 9.2855 25.0366 10.1585C25.3516 11.0315 25.5091 12.0125 25.5091 13.1015C25.5091 14.1905 25.3516 15.1715 25.0366 16.0445C24.7216 16.9175 24.2716 17.6645 23.6866 18.2855C23.1106 18.8975 22.4086 19.37 21.5806 19.703C20.7616 20.036 19.8436 20.2025 18.8266 20.2025C17.8006 20.2025 16.8736 20.036 16.0456 19.703C15.2266 19.37 14.5246 18.8975 13.9396 18.2855C13.3546 17.6645 12.9046 16.9175 12.5896 16.0445C12.2746 15.1715 12.1171 14.1905 12.1171 13.1015C12.1171 12.0125 12.2746 11.0315 12.5896 10.1585C12.9046 9.2855 13.3546 8.543 13.9396 7.931C14.5246 7.319 15.2266 6.8465 16.0456 6.5135C16.8736 6.1805 17.8006 6.014 18.8266 6.014ZM18.8266 17.9345C20.0686 17.9345 20.9911 17.5205 21.5941 16.6925C22.2061 15.8555 22.5121 14.663 22.5121 13.115C22.5121 11.567 22.2061 10.3745 21.5941 9.5375C20.9911 8.6915 20.0686 8.2685 18.8266 8.2685C17.5666 8.2685 16.6306 8.6915 16.0186 9.5375C15.4066 10.3745 15.1006 11.567 15.1006 13.115C15.1006 14.663 15.4066 15.8555 16.0186 16.6925C16.6306 17.5205 17.5666 17.9345 18.8266 17.9345Z" fill="white"/>
<path d="M33.1064 12.9935C34.0064 12.9935 34.6814 12.764 35.1314 12.305C35.5814 11.846 35.8064 11.2475 35.8064 10.5095C35.8064 9.7535 35.5814 9.155 35.1314 8.714C34.6814 8.273 34.0064 8.0525 33.1064 8.0525C32.2154 8.0525 31.5404 8.273 31.0814 8.714C30.6314 9.155 30.4064 9.7535 30.4064 10.5095C30.4064 10.8695 30.4649 11.2025 30.5819 11.5085C30.6989 11.8145 30.8699 12.08 31.0949 12.305C31.3199 12.521 31.5989 12.692 31.9319 12.818C32.2739 12.935 32.6654 12.9935 33.1064 12.9935ZM37.1429 20.675C37.1429 20.369 37.0529 20.126 36.8729 19.946C36.7019 19.757 36.4679 19.613 36.1709 19.514C35.8739 19.406 35.5274 19.3295 35.1314 19.2845C34.7354 19.2305 34.3124 19.1945 33.8624 19.1765C33.4214 19.1495 32.9669 19.127 32.4989 19.109C32.0399 19.082 31.5944 19.037 31.1624 18.974C30.7304 19.199 30.3749 19.469 30.0959 19.784C29.8259 20.099 29.6909 20.4635 29.6909 20.8775C29.6909 21.1475 29.7584 21.3995 29.8934 21.6335C30.0374 21.8675 30.2534 22.07 30.5414 22.241C30.8384 22.412 31.2119 22.547 31.6619 22.646C32.1209 22.745 32.6699 22.7945 33.3089 22.7945C34.5869 22.7945 35.5454 22.5965 36.1844 22.2005C36.8234 21.8045 37.1429 21.296 37.1429 20.675ZM40.0589 6.7295V7.8095C40.0589 8.1695 39.8429 8.39 39.4109 8.471L38.0339 8.7005C38.2679 9.2225 38.3849 9.803 38.3849 10.442C38.3849 11.117 38.2499 11.729 37.9799 12.278C37.7189 12.827 37.3544 13.295 36.8864 13.682C36.4184 14.069 35.8604 14.366 35.2124 14.573C34.5644 14.78 33.8624 14.8835 33.1064 14.8835C32.8184 14.8835 32.5349 14.87 32.2559 14.843C31.9859 14.807 31.7204 14.762 31.4594 14.708C31.1984 14.861 31.0049 15.023 30.8789 15.194C30.7529 15.365 30.6899 15.5405 30.6899 15.7205C30.6899 16.0175 30.8204 16.238 31.0814 16.382C31.3424 16.526 31.6844 16.6295 32.1074 16.6925C32.5394 16.7555 33.0299 16.796 33.5789 16.814C34.1279 16.832 34.6859 16.8635 35.2529 16.9085C35.8199 16.9535 36.3779 17.03 36.9269 17.138C37.4759 17.237 37.9619 17.408 38.3849 17.651C38.8169 17.885 39.1634 18.2045 39.4244 18.6095C39.6854 19.0145 39.8159 19.541 39.8159 20.189C39.8159 20.783 39.6674 21.3635 39.3704 21.9305C39.0734 22.4975 38.6414 23.0015 38.0744 23.4425C37.5164 23.8835 36.8324 24.2345 36.0224 24.4955C35.2124 24.7655 34.2899 24.9005 33.2549 24.9005C32.2289 24.9005 31.3334 24.8015 30.5684 24.6035C29.8124 24.4055 29.1779 24.1355 28.6649 23.7935C28.1609 23.4605 27.7829 23.0735 27.5309 22.6325C27.2879 22.1915 27.1664 21.7325 27.1664 21.2555C27.1664 20.6075 27.3689 20.054 27.7739 19.595C28.1879 19.136 28.7459 18.776 29.4479 18.515C29.0699 18.335 28.7639 18.0875 28.5299 17.7725C28.3049 17.4575 28.1924 17.0435 28.1924 16.5305C28.1924 16.1255 28.3409 15.7025 28.6379 15.2615C28.9349 14.8205 29.3804 14.447 29.9744 14.141C29.2904 13.763 28.7504 13.2635 28.3544 12.6425C27.9584 12.0125 27.7604 11.279 27.7604 10.442C27.7604 9.758 27.8909 9.1415 28.1519 8.5925C28.4219 8.0435 28.7954 7.5755 29.2724 7.1885C29.7494 6.8015 30.3119 6.5045 30.9599 6.2975C31.6169 6.0905 32.3324 5.987 33.1064 5.987C34.2944 5.987 35.3294 6.2345 36.2114 6.7295H40.0589Z" fill="white"/>
<path d="M48.0678 6.014C49.0848 6.014 50.0028 6.1805 50.8218 6.5135C51.6498 6.8465 52.3518 7.319 52.9278 7.931C53.5128 8.543 53.9628 9.2855 54.2778 10.1585C54.5928 11.0315 54.7503 12.0125 54.7503 13.1015C54.7503 14.1905 54.5928 15.1715 54.2778 16.0445C53.9628 16.9175 53.5128 17.6645 52.9278 18.2855C52.3518 18.8975 51.6498 19.37 50.8218 19.703C50.0028 20.036 49.0848 20.2025 48.0678 20.2025C47.0418 20.2025 46.1148 20.036 45.2868 19.703C44.4678 19.37 43.7658 18.8975 43.1808 18.2855C42.5958 17.6645 42.1458 16.9175 41.8308 16.0445C41.5158 15.1715 41.3583 14.1905 41.3583 13.1015C41.3583 12.0125 41.5158 11.0315 41.8308 10.1585C42.1458 9.2855 42.5958 8.543 43.1808 7.931C43.7658 7.319 44.4678 6.8465 45.2868 6.5135C46.1148 6.1805 47.0418 6.014 48.0678 6.014ZM48.0678 17.9345C49.3098 17.9345 50.2323 17.5205 50.8353 16.6925C51.4473 15.8555 51.7533 14.663 51.7533 13.115C51.7533 11.567 51.4473 10.3745 50.8353 9.5375C50.2323 8.6915 49.3098 8.2685 48.0678 8.2685C46.8078 8.2685 45.8718 8.6915 45.2598 9.5375C44.6478 10.3745 44.3418 11.567 44.3418 13.115C44.3418 14.663 44.6478 15.8555 45.2598 16.6925C45.8718 17.5205 46.8078 17.9345 48.0678 17.9345Z" fill="white"/>
<path d="M61.6899 20.216C60.5469 20.216 59.6649 19.8965 59.0439 19.2575C58.4319 18.6095 58.1259 17.7005 58.1259 16.5305V8.5115H56.6139C56.4519 8.5115 56.3124 8.462 56.1954 8.363C56.0784 8.255 56.0199 8.0975 56.0199 7.8905V6.716L58.2474 6.392L58.8819 2.4095C58.9269 2.2565 59.0034 2.135 59.1114 2.045C59.2194 1.946 59.3634 1.8965 59.5434 1.8965H61.0284V6.419H64.8489V8.5115H61.0284V16.328C61.0284 16.823 61.1499 17.201 61.3929 17.462C61.6359 17.723 61.9599 17.8535 62.3649 17.8535C62.5899 17.8535 62.7834 17.8265 62.9454 17.7725C63.1074 17.7095 63.2469 17.6465 63.3639 17.5835C63.4809 17.5115 63.5799 17.4485 63.6609 17.3945C63.7509 17.3315 63.8364 17.3 63.9174 17.3C64.0794 17.3 64.2099 17.39 64.3089 17.57L65.1729 18.9875C64.7229 19.3835 64.1919 19.6895 63.5799 19.9055C62.9679 20.1125 62.3379 20.216 61.6899 20.216Z" fill="white"/>
<path d="M79.3543 6.23L71.7673 23.915C71.6683 24.122 71.5468 24.284 71.4028 24.401C71.2678 24.518 71.0563 24.5765 70.7683 24.5765H68.6218L71.1598 19.0685L65.5438 6.23H68.0683C68.3113 6.23 68.4958 6.2885 68.6218 6.4055C68.7568 6.5135 68.8558 6.644 68.9188 6.797L72.1993 14.6135C72.2803 14.8385 72.3523 15.0635 72.4153 15.2885C72.4873 15.5045 72.5548 15.7295 72.6178 15.9635C72.6898 15.7295 72.7618 15.5 72.8338 15.275C72.9058 15.05 72.9868 14.825 73.0768 14.6L76.2223 6.797C76.2853 6.635 76.3888 6.5 76.5328 6.392C76.6858 6.284 76.8523 6.23 77.0323 6.23H79.3543Z" fill="white"/>
<path d="M84.1457 16.544C84.5507 17.066 84.9917 17.435 85.4687 17.651C85.9547 17.858 86.4902 17.9615 87.0752 17.9615C88.2092 17.9615 89.0912 17.5475 89.7212 16.7195C90.3602 15.8915 90.6797 14.6585 90.6797 13.0205C90.6797 12.1745 90.6077 11.4545 90.4637 10.8605C90.3197 10.2575 90.1127 9.767 89.8427 9.389C89.5727 9.011 89.2442 8.7365 88.8572 8.5655C88.4702 8.3945 88.0337 8.309 87.5477 8.309C86.8097 8.309 86.1707 8.471 85.6307 8.795C85.0997 9.11 84.6047 9.5645 84.1457 10.1585V16.544ZM83.9972 8.228C84.5732 7.553 85.2257 7.0085 85.9547 6.5945C86.6927 6.1805 87.5477 5.9735 88.5197 5.9735C89.2937 5.9735 89.9957 6.131 90.6257 6.446C91.2557 6.752 91.7957 7.202 92.2457 7.796C92.6957 8.39 93.0422 9.128 93.2852 10.01C93.5372 10.883 93.6632 11.8865 93.6632 13.0205C93.6632 14.0375 93.5237 14.987 93.2447 15.869C92.9747 16.742 92.5832 17.5025 92.0702 18.1505C91.5572 18.7895 90.9362 19.2935 90.2072 19.6625C89.4782 20.0225 88.6547 20.2025 87.7367 20.2025C86.9267 20.2025 86.2382 20.072 85.6712 19.811C85.1132 19.55 84.6047 19.19 84.1457 18.731V24.5765H81.2432V6.23H82.9982C83.3942 6.23 83.6462 6.4145 83.7542 6.7835L83.9972 8.228Z" fill="white"/>
<path d="M105.515 11.5625C105.515 11.0765 105.443 10.6265 105.299 10.2125C105.164 9.7895 104.961 9.425 104.691 9.119C104.421 8.804 104.084 8.561 103.679 8.39C103.283 8.21 102.824 8.12 102.302 8.12C101.249 8.12 100.421 8.4215 99.8179 9.0245C99.2149 9.6275 98.8324 10.4735 98.6704 11.5625H105.515ZM98.5894 13.3445C98.6254 14.1275 98.7469 14.807 98.9539 15.383C99.1609 15.95 99.4354 16.4225 99.7774 16.8005C100.128 17.1785 100.542 17.462 101.019 17.651C101.505 17.831 102.045 17.921 102.639 17.921C103.206 17.921 103.697 17.858 104.111 17.732C104.525 17.597 104.885 17.453 105.191 17.3C105.497 17.138 105.758 16.994 105.974 16.868C106.19 16.733 106.388 16.6655 106.568 16.6655C106.802 16.6655 106.982 16.7555 107.108 16.9355L107.931 18.002C107.589 18.407 107.202 18.749 106.77 19.028C106.338 19.307 105.879 19.5365 105.393 19.7165C104.907 19.8875 104.408 20.009 103.895 20.081C103.382 20.162 102.882 20.2025 102.396 20.2025C101.442 20.2025 100.556 20.045 99.7369 19.73C98.9269 19.406 98.2204 18.9335 97.6174 18.3125C97.0234 17.6915 96.5554 16.922 96.2134 16.004C95.8804 15.086 95.7139 14.0285 95.7139 12.8315C95.7139 11.8775 95.8624 10.9865 96.1594 10.1585C96.4654 9.3305 96.8974 8.6105 97.4554 7.9985C98.0224 7.3865 98.7064 6.905 99.5074 6.554C100.317 6.194 101.231 6.014 102.248 6.014C103.094 6.014 103.877 6.1535 104.597 6.4325C105.317 6.7025 105.938 7.103 106.46 7.634C106.982 8.165 107.387 8.8175 107.675 9.5915C107.972 10.3565 108.12 11.2295 108.12 12.2105C108.12 12.6605 108.071 12.962 107.972 13.115C107.873 13.268 107.693 13.3445 107.432 13.3445H98.5894Z" fill="white"/>
</svg>
